<svg width="20" height="20" viewBox="0 0 20 20" fill="none" xmlns="http://www.w3.org/2000/svg">
<path fill-rule="evenodd" clip-rule="evenodd" d="M12.6826 5.8074C12.7407 5.74919 12.8097 5.70301 12.8856 5.67151C12.9615 5.64 13.0429 5.62378 13.1251 5.62378C13.2073 5.62378 13.2888 5.64 13.3647 5.67151C13.4406 5.70301 13.5096 5.74919 13.5676 5.8074L17.3176 9.5574C17.3758 9.61545 17.422 9.68442 17.4535 9.76035C17.485 9.83629 17.5013 9.91769 17.5013 9.9999C17.5013 10.0821 17.485 10.1635 17.4535 10.2394C17.422 10.3154 17.3758 10.3843 17.3176 10.4424L13.5676 14.1924C13.4503 14.3098 13.2911 14.3757 13.1251 14.3757C12.9592 14.3757 12.8 14.3098 12.6826 14.1924C12.5653 14.075 12.4994 13.9159 12.4994 13.7499C12.4994 13.5839 12.5653 13.4248 12.6826 13.3074L15.9914 9.9999L12.6826 6.6924C12.6244 6.63434 12.5783 6.56537 12.5468 6.48944C12.5152 6.41351 12.499 6.33211 12.499 6.2499C12.499 6.16769 12.5152 6.08629 12.5468 6.01035C12.5783 5.93442 12.6244 5.86545 12.6826 5.8074Z" fill="#1773BA"/>
<path fill-rule="evenodd" clip-rule="evenodd" d="M2.5 10C2.5 9.83424 2.56585 9.67527 2.68306 9.55806C2.80027 9.44085 2.95924 9.375 3.125 9.375H16.25C16.4158 9.375 16.5747 9.44085 16.6919 9.55806C16.8092 9.67527 16.875 9.83424 16.875 10C16.875 10.1658 16.8092 10.3247 16.6919 10.4419C16.5747 10.5592 16.4158 10.625 16.25 10.625H3.125C2.95924 10.625 2.80027 10.5592 2.68306 10.4419C2.56585 10.3247 2.5 10.1658 2.5 10Z" fill="#1773BA"/>
</svg>
