<svg width="39" height="50" viewBox="0 0 39 50" fill="none" xmlns="http://www.w3.org/2000/svg">
<path d="M30.5979 32.4671C30.5582 32.4628 24.8026 32.6326 23.9469 26.4648C24.8978 25.8014 25.7741 24.94 26.5462 23.8949C28.0481 21.8617 29.0159 19.3111 29.3606 16.5522C29.4791 16.4451 29.5771 16.3118 29.6432 16.1547C30.2669 14.6688 30.5832 13.0823 30.5832 11.439C30.5832 5.13154 25.8253 0 19.9767 0C18.4471 0 16.9631 0.352344 15.5615 1.04814C15.0269 1.08896 14.5029 1.18301 14.0005 1.32812C11.5984 2.02217 9.64375 3.80313 8.49639 6.34316C7.38252 8.80937 7.16299 11.7126 7.87842 14.5182C8.02959 15.1108 8.22178 15.6933 8.44971 16.2497C8.51142 16.4002 8.60342 16.5286 8.71387 16.6343C9.27226 20.9404 11.3212 24.5083 14.1149 26.4562C13.2565 32.6345 7.50303 32.463 7.46338 32.4673C3.32451 32.6077 0 36.0162 0 40.1887V48.8743C0 49.4961 0.504004 50.0001 1.12578 50.0001H11.0116H27.0494H36.9354C37.5571 50.0001 38.0613 49.4961 38.0613 48.8743V40.1887C38.0612 36.016 34.737 32.6074 30.5979 32.4671ZM14.6256 3.49131C15.0364 3.37256 15.4703 3.30215 15.9152 3.28213C16.0804 3.27471 16.2418 3.23105 16.3882 3.1541C17.5279 2.55527 18.7353 2.25166 19.9768 2.25166C24.5836 2.25166 28.3316 6.37305 28.3316 11.439C28.3316 11.591 28.3273 11.7423 28.3207 11.893C27.4271 10.9855 26.1856 10.4216 24.8146 10.4216H17.1417C16.6852 10.4216 16.2519 10.2782 15.8885 10.0069C15.5782 9.77539 15.3384 9.46416 15.1951 9.10693C14.9732 8.55439 14.4262 8.20879 13.8307 8.24619C13.233 8.28428 12.7301 8.69932 12.5791 9.2793C12.1345 10.9879 11.2479 12.5617 10.0314 13.838C8.89961 9.17988 10.9423 4.55547 14.6256 3.49131ZM13.6461 22.9629C12.1812 21.1732 11.2218 18.7565 10.9177 16.1107C12.3383 14.8446 13.4613 13.269 14.1925 11.5214C14.3034 11.6237 14.4199 11.7205 14.5416 11.8114C15.2971 12.3752 16.1961 12.6733 17.1418 12.6733H24.8147C25.9004 12.6733 26.8361 13.3245 27.2537 14.2564C27.2536 14.2645 27.2524 14.2721 27.2524 14.2801C27.2524 20.6354 23.5649 25.8058 19.0323 25.8058C17.0597 25.8059 15.1467 24.7962 13.6461 22.9629ZM16.2329 27.5618C17.1254 27.8848 18.0642 28.0575 19.0323 28.0575C19.9928 28.0575 20.9312 27.8903 21.8295 27.5678C22.2417 29.7153 23.4357 31.5871 25.1036 32.8757L19.192 41.2944C19.1534 41.3494 19.0998 41.3772 19.0326 41.3772C18.9655 41.3772 18.9119 41.3493 18.8734 41.2945L12.9604 32.8738C14.6283 31.5838 15.822 29.7106 16.2329 27.5618ZM35.8096 47.7483H27.0494H11.0116H2.25156V40.1885C2.25156 37.1688 4.7083 34.712 7.72803 34.712C7.76904 34.712 9.58066 34.668 11.0121 34.0175L17.0306 42.5884C17.488 43.2399 18.2364 43.6289 19.0325 43.6289C19.0325 43.6289 19.0325 43.6289 19.0326 43.6289C19.8286 43.6289 20.5771 43.2399 21.0346 42.5884L27.052 34.0188C28.6845 34.7121 30.2922 34.7121 30.3332 34.7121C33.3529 34.7121 35.8096 37.1688 35.8096 40.1886V47.7483Z" fill="#1773BA"/>
</svg>
