<svg width="71" height="70" viewBox="0 0 71 70" fill="none" xmlns="http://www.w3.org/2000/svg">
<g clip-path="url(#clip0_336_1071)">
<path d="M8.06852 22.7166H1.97466C1.03936 22.7166 0.28125 23.4747 0.28125 24.41C0.28125 25.3453 1.03936 26.1034 1.97466 26.1034H8.06839C9.00382 26.1034 9.76193 25.3453 9.76193 24.41C9.76193 23.4747 9.00382 22.7166 8.06852 22.7166Z" fill="#1773BA"/>
<path d="M68.4894 22.7166H62.3956C61.4604 22.7166 60.7021 23.4747 60.7021 24.41C60.7021 25.3453 61.4604 26.1034 62.3956 26.1034H68.4894C69.4246 26.1034 70.1828 25.3453 70.1828 24.41C70.1828 23.4747 69.4246 22.7166 68.4894 22.7166Z" fill="#1773BA"/>
<path d="M15.046 44.5968C14.3847 43.9355 13.3125 43.9355 12.6511 44.5968L8.21864 49.0293C7.55733 49.6906 7.55733 50.7627 8.21864 51.4242C8.54937 51.7549 8.98277 51.9202 9.41603 51.9202C9.8493 51.9202 10.2828 51.7549 10.6134 51.4242L15.046 46.9917C15.7073 46.3306 15.7073 45.2583 15.046 44.5968Z" fill="#1773BA"/>
<path d="M59.1463 0.495984C58.4848 -0.165328 57.4129 -0.165328 56.7514 0.495984L52.4403 4.80702C51.779 5.46834 51.779 6.54063 52.4403 7.2018C52.7712 7.53226 53.2046 7.69769 53.6378 7.69769C54.0714 7.69769 54.5045 7.53226 54.8352 7.20167L59.1461 2.89076C59.8074 2.22945 59.8074 1.15716 59.1463 0.495984Z" fill="#1773BA"/>
<path d="M18.0219 4.8046L13.7132 0.496023C13.0519 -0.165016 11.9796 -0.165016 11.3183 0.496023C10.6569 1.15734 10.6569 2.22963 11.3183 2.89094L15.627 7.19966C15.9577 7.53024 16.3911 7.69567 16.8244 7.69567C17.2576 7.69567 17.6912 7.53024 18.0217 7.19966C18.6831 6.53834 18.6831 5.46605 18.0219 4.8046Z" fill="#1773BA"/>
<path d="M62.2464 49.0299L57.8304 44.6134C57.1689 43.9521 56.097 43.9521 55.4354 44.6135C54.7741 45.2748 54.7741 46.3471 55.4354 47.0083L59.8516 51.4245C60.1823 51.7552 60.6157 51.9205 61.049 51.9205C61.4825 51.9205 61.9157 51.7551 62.2464 51.4245C62.9077 50.7633 62.9077 49.691 62.2464 49.0299Z" fill="#1773BA"/>
<path d="M35.2323 4.59863C23.5226 4.59863 13.9961 14.5634 13.9961 26.812C13.9961 32.5064 16.0358 38.6358 19.5924 43.6285C22.324 47.4628 23.7676 51.729 23.7676 55.9661V66.6131C23.7676 68.4806 25.2869 69.9999 27.1544 69.9999H43.3104C45.1779 69.9999 46.6972 68.4806 46.6972 66.6131V55.9661C46.6972 51.7291 48.1409 47.4628 50.8721 43.6285C54.4287 38.6359 56.4686 32.5064 56.4686 26.812C56.4683 14.5634 46.9418 4.59863 35.2323 4.59863ZM43.3101 66.6134H27.1541V64.3984H35.2322C36.1675 64.3984 36.9257 63.6403 36.9257 62.705C36.9257 61.7697 36.1675 61.0116 35.2322 61.0116H27.1541V58.7967H43.3105L43.3125 66.6131C43.3123 66.6134 43.3116 66.6134 43.3101 66.6134ZM32.8575 35.0194L30.5929 30.1813H39.8715L37.6072 35.0194C37.518 35.2099 37.4651 35.4154 37.451 35.6251L36.1378 55.4099H34.3267L33.0135 35.6251C32.9996 35.4154 32.9465 35.2099 32.8575 35.0194ZM48.1135 41.6636C45.0889 45.9095 43.4366 50.6506 43.3171 55.4099H39.5322L40.8093 36.1668L44.0674 29.2057C44.313 28.6812 44.2735 28.0675 43.9626 27.5789C43.6518 27.0904 43.1129 26.7944 42.5337 26.7944H27.9306C27.3514 26.7944 26.8126 27.0904 26.5017 27.5789C26.1909 28.0674 26.1513 28.6811 26.3968 29.2056L29.6551 36.1666L30.9322 55.4098H27.147C27.0275 50.6503 25.3754 45.9094 22.3506 41.6634C19.2397 37.2963 17.3825 31.7443 17.3825 26.8119C17.3825 16.4308 25.3898 7.98531 35.2319 7.98531C45.0741 7.98531 53.0813 16.4308 53.0813 26.8119C53.0816 31.7446 51.2244 37.2966 48.1135 41.6636Z" fill="#1773BA"/>
</g>
<defs>
<clipPath id="clip0_336_1071">
<rect width="70" height="70" fill="white" transform="translate(0.232422)"/>
</clipPath>
</defs>
</svg>
