<svg width="31" height="50" viewBox="0 0 31 50" fill="none" xmlns="http://www.w3.org/2000/svg">
<path d="M15.0277 40.8333C13.4982 40.8333 12.2539 42.0775 12.2539 43.607C12.2539 45.1365 13.4982 46.3807 15.0277 46.3807C16.5572 46.3807 17.8015 45.1365 17.8015 43.607C17.8015 42.0775 16.5571 40.8333 15.0277 40.8333ZM15.0277 44.4598C14.5574 44.4598 14.1748 44.0772 14.1748 43.607C14.1748 43.1368 14.5574 42.7542 15.0277 42.7542C15.4979 42.7542 15.8806 43.1368 15.8806 43.607C15.8804 44.0772 15.4977 44.4598 15.0277 44.4598Z" fill="#1773BA"/>
<path d="M19.5767 3.94995H14.6545C14.0945 3.94995 13.6406 4.40386 13.6406 4.96382C13.6406 5.52378 14.0946 5.97769 14.6545 5.97769H19.5767C20.1366 5.97769 20.5905 5.52378 20.5905 4.96382C20.5905 4.40386 20.1366 3.94995 19.5767 3.94995Z" fill="#1773BA"/>
<path d="M11.5419 6.05303C12.1297 6.05303 12.6063 5.5765 12.6063 4.98867C12.6063 4.40084 12.1297 3.92432 11.5419 3.92432C10.9541 3.92432 10.4775 4.40084 10.4775 4.98867C10.4775 5.5765 10.9541 6.05303 11.5419 6.05303Z" fill="#1773BA"/>
<path d="M26.8541 0H3.20156C1.43623 0 0 1.43623 0 3.20156V46.7983C0 48.5637 1.43623 49.9999 3.20156 49.9999H26.854C28.6193 49.9999 30.0556 48.5637 30.0556 46.7983V3.20156C30.0557 1.43623 28.6194 0 26.8541 0ZM27.9213 46.7984C27.9213 47.3869 27.4426 47.8656 26.8541 47.8656H3.20156C2.61309 47.8656 2.13438 47.3869 2.13438 46.7984V3.20156C2.13438 2.61309 2.61309 2.13437 3.20156 2.13437H26.854C27.4425 2.13437 27.9212 2.61309 27.9212 3.20156V46.7984H27.9213Z" fill="#1773BA"/>
<path d="M16.8262 20.0395C16.4093 19.6229 15.7338 19.6229 15.3168 20.0395L10.1904 25.166C9.77374 25.5827 9.77374 26.2584 10.1905 26.6752C10.3989 26.8836 10.6721 26.9879 10.9451 26.9879C11.2182 26.9879 11.4914 26.8836 11.6997 26.6753L16.8261 21.5489C17.2429 21.1321 17.2429 20.4563 16.8262 20.0395Z" fill="#1773BA"/>
<path d="M19.865 23.0102C19.4482 22.5936 18.7726 22.5936 18.3556 23.0102L16.3134 25.0524C15.8968 25.4691 15.8968 26.1449 16.3135 26.5618C16.5219 26.7701 16.7951 26.8744 17.0681 26.8744C17.3412 26.8744 17.6143 26.7701 17.8227 26.5618L19.8649 24.5196C20.2818 24.1028 20.2818 23.427 19.865 23.0102Z" fill="#1773BA"/>
<path d="M24.731 7.89941H5.32373C4.79326 7.89941 4.36328 8.32939 4.36328 8.85986V38.2813C4.36328 38.8117 4.79326 39.2417 5.32373 39.2417H24.731C25.2614 39.2417 25.6914 38.8117 25.6914 38.2813V8.85986C25.6914 8.32949 25.2614 7.89941 24.731 7.89941ZM23.7704 37.3208H6.28408V9.82041H23.7704V37.3208Z" fill="#1773BA"/>
</svg>
