<svg width="71" height="70" viewBox="0 0 71 70" fill="none" xmlns="http://www.w3.org/2000/svg">
<path d="M66.6207 30.9252C66.6207 13.873 52.7479 0 35.6957 0C18.6436 0 4.77051 13.873 4.77051 30.9252C4.77051 31.9382 5.59178 32.7595 6.60473 32.7595C7.61768 32.7595 8.43895 31.938 8.43895 30.9252C8.43895 15.8957 20.6663 3.66857 35.6956 3.66857C50.725 3.66857 62.9523 15.8959 62.9523 30.9252C62.9523 45.9545 50.725 58.1818 35.6956 58.1818H32.5133L37.0636 53.0883C37.7386 52.3329 37.6731 51.1733 36.9177 50.4983C36.1624 49.8233 35.0026 49.8889 34.3277 50.6443L27.8232 57.9253C26.7584 59.1172 26.7584 60.9148 27.8232 62.1067L34.3277 69.3876C34.6902 69.7934 35.1921 69.9999 35.6963 69.9999C36.1312 69.9999 36.5679 69.8459 36.9177 69.5337C37.6732 68.8587 37.7386 67.699 37.0636 66.9436L32.5133 61.8502H35.6956C52.7479 61.8502 66.6207 47.9772 66.6207 30.9252Z" fill="#1773BA"/>
</svg>
