<svg width="71" height="70" viewBox="0 0 71 70" fill="none" xmlns="http://www.w3.org/2000/svg">
<g clip-path="url(#clip0_336_1098)">
<path d="M37.276 41.4168C35.832 39.3738 33.5128 38.1255 31.0262 38.031C30.9736 38.0251 30.9203 38.0218 30.8661 38.0218C27.7031 38.0218 25.0895 35.6314 24.7331 32.5627C25.6437 31.8994 26.484 31.0578 27.2287 30.0496C28.7347 28.0108 29.7122 25.4631 30.0746 22.7081C30.1857 22.5874 30.2792 22.4469 30.3463 22.2869C30.984 20.7685 31.3073 19.1474 31.3073 17.4687C31.3073 11.0127 26.4262 5.7605 20.4267 5.7605C18.8751 5.7605 17.3697 6.11296 15.9467 6.80845C15.4147 6.85329 14.8934 6.94899 14.3929 7.09391C9.37725 8.54299 6.54239 14.6076 8.07377 20.6126C8.22786 21.2168 8.42377 21.811 8.65647 22.3785C8.7199 22.5335 8.80877 22.6697 8.9135 22.7887C9.49113 27.0299 11.4986 30.5588 14.244 32.555C13.8911 35.6276 11.2756 38.0221 8.10987 38.0221C8.0612 38.0221 8.01307 38.0247 7.96549 38.0293C3.67568 38.181 0.232422 41.7155 0.232422 46.0416V54.674C0.232422 55.4794 0.885253 56.1322 1.69066 56.1322H27.4554C28.2607 56.1322 28.9136 55.4794 28.9136 54.674C28.9136 53.8686 28.2607 53.2158 27.4554 53.2158H3.14876V46.0415C3.14876 43.2271 5.43825 40.9378 8.25246 40.9378C8.30114 40.9378 8.34926 40.9352 8.39684 40.9305C9.44725 40.8977 10.4531 40.6863 11.3852 40.325L18.2891 50.2894C18.5614 50.6825 19.0093 50.9173 19.4877 50.9173C19.9661 50.9173 20.414 50.6826 20.6863 50.2894L27.5903 40.325C28.5226 40.6863 29.5283 40.8977 30.5787 40.9305C30.6263 40.9352 30.6744 40.9378 30.7231 40.9378C32.3781 40.9378 33.9375 41.746 34.8944 43.1C35.1785 43.5019 35.6288 43.7166 36.0864 43.7166C36.3774 43.7166 36.6712 43.6296 36.9268 43.449C37.5846 42.9844 37.7407 42.0744 37.276 41.4168ZM15.202 9.89514C15.5845 9.78467 15.9891 9.71905 16.4046 9.70032C16.6187 9.69075 16.8276 9.63414 17.0173 9.53448C18.101 8.96518 19.2478 8.67643 20.4262 8.67643C24.7287 8.67643 28.2429 12.4627 28.3837 17.1751C27.5068 16.512 26.4159 16.1179 25.2344 16.1179H17.6084C17.2286 16.1179 16.8679 15.9987 16.5659 15.7732C16.3074 15.5803 16.1078 15.3214 15.9884 15.0237C15.7129 14.3382 15.0314 13.91 14.2954 13.9565C13.555 14.0039 12.9319 14.5185 12.7453 15.2363C12.3733 16.6654 11.6788 17.9964 10.7345 19.1266C9.97813 14.8985 11.8826 10.8542 15.202 9.89514ZM11.7823 22.2446C13.0559 21.0771 14.0867 19.662 14.8063 18.0993C14.8113 18.103 14.8163 18.1067 14.8214 18.1104C15.6314 18.715 16.595 19.0344 17.6082 19.0344H25.2343C26.1503 19.0344 26.9415 19.5703 27.317 20.3437C27.3073 23.373 26.4442 26.2027 24.8826 28.3165C23.41 30.3098 21.4941 31.4077 19.4874 31.4077C17.6304 31.4077 15.8224 30.4483 14.3966 28.7065C13.0133 27.0168 12.0979 24.7424 11.7823 22.2446ZM19.4876 46.8986L13.9071 38.8442C15.4042 37.602 16.4955 35.8889 16.9569 33.9349C17.7694 34.1892 18.6168 34.3243 19.4874 34.3243C20.3534 34.3243 21.2015 34.1929 22.0195 33.9391C22.4814 35.8912 23.5723 37.6027 25.0683 38.8441L19.4876 46.8986Z" fill="#1773BA"/>
<path d="M62.4999 46.1363C62.4523 46.1316 62.4042 46.129 62.3555 46.129C59.1882 46.129 56.5716 43.7322 56.2208 40.6572C58.0066 39.3567 59.4791 37.4068 60.4497 35.0354C60.5886 35.4899 60.9442 35.8568 61.412 36.0019C61.5542 36.0459 61.6997 36.0674 61.8436 36.0674C62.2855 36.0674 62.7132 35.866 62.9944 35.5049C65.0289 32.892 66.0864 29.4912 65.9727 25.929C65.8608 22.4345 64.6324 19.1539 62.5133 16.6919C60.3437 14.1711 57.4794 12.7682 54.4453 12.7392C54.2843 12.7327 53.8842 12.7465 53.8195 12.7505C52.2606 12.0433 50.6134 11.713 48.917 11.7669C45.4136 11.8789 42.191 13.625 39.8432 16.6837C37.5616 19.6561 36.3767 23.533 36.5067 27.6007C36.5287 28.2899 36.5831 28.9245 36.6712 29.5288C36.9086 31.2623 37.3862 32.9224 38.0904 34.4631C38.3145 34.9535 38.791 35.2803 39.3291 35.3126C39.8655 35.345 40.3792 35.0777 40.6606 34.6176C40.7779 34.4258 40.9287 34.1867 41.0951 33.9523C41.7452 35.9272 42.739 37.7016 44.0008 39.1024C44.539 39.7 45.1204 40.2198 45.7326 40.6632C45.379 43.7351 42.7637 46.1288 39.5986 46.1288C39.5499 46.1288 39.5018 46.1314 39.4542 46.136C35.1648 46.288 31.7217 49.8229 31.7217 54.1487V62.7811C31.7217 63.5865 32.3746 64.2393 33.1799 64.2393H68.774C69.5793 64.2393 70.2323 63.5865 70.2323 62.7811V54.1487C70.2325 49.8232 66.7893 46.2885 62.4999 46.1363ZM39.8964 30.8471C39.7525 30.2854 39.6399 29.7094 39.5591 29.1208C39.4852 28.6139 39.4404 28.0862 39.4219 27.5077C39.3134 24.112 40.2846 20.8986 42.1569 18.4597C43.9626 16.107 46.3965 14.7655 49.0103 14.682C49.0976 14.6791 50.9772 14.5733 52.896 15.5402C53.1105 15.6482 53.3577 15.6984 53.5984 15.6915C53.626 15.6907 54.3746 15.6553 54.3963 15.6556C56.5865 15.6701 58.6841 16.7139 60.303 18.5946C61.9888 20.5535 62.9672 23.1914 63.0577 26.0224C63.1068 27.5601 62.8908 29.0548 62.4333 30.4301C62.2955 30.0628 62.1418 29.7012 61.9727 29.3456C60.5648 26.3501 58.1948 24.0299 55.2992 22.8121C54.9324 22.6579 54.5187 22.6602 54.1538 22.8185C53.7887 22.9767 53.5044 23.2772 53.3664 23.6505C53.1723 24.1749 52.9371 24.6858 52.667 25.1689C51.9035 26.5341 50.3643 27.3464 48.6528 27.2865C48.3959 27.2777 48.1351 27.2773 47.8781 27.2855C46.6172 27.3259 45.3875 27.5662 44.2168 28.0022C43.0604 28.4386 41.1171 29.5336 39.8964 30.8471ZM43.4837 31.6407C44.0366 31.2703 44.6249 30.9653 45.241 30.7325C46.1083 30.4096 47.0269 30.2305 47.9712 30.2002C48.164 30.194 48.3592 30.1942 48.5517 30.2009C51.3673 30.2973 53.9134 28.9151 55.2124 26.5921C55.2922 26.4492 55.3699 26.3042 55.4449 26.1578C56.7749 26.9771 57.9117 28.132 58.7665 29.5336C58.7591 29.5768 58.7528 29.6201 58.7493 29.6647C58.5256 32.4315 57.5712 34.9706 56.0617 36.8144C54.6358 38.5563 52.8279 39.5156 50.9708 39.5156C47.5378 39.5153 44.4838 36.2519 43.4837 31.6407ZM48.447 42.0398C49.2677 42.2963 50.1141 42.4316 50.9708 42.4316C51.8436 42.4316 52.6931 42.2957 53.5076 42.0401C54.0933 44.5233 55.6991 46.6155 57.8577 47.8499C57.0157 50.8926 54.2173 53.0805 50.9775 53.0805C47.7374 53.0805 44.9392 50.8925 44.0973 47.8496C46.2557 46.6155 47.8614 44.5231 48.447 42.0398ZM67.3162 61.3232H34.6384V54.1489C34.6384 51.3349 36.9279 49.0452 39.7421 49.0452C39.7908 49.0452 39.8389 49.0426 39.8865 49.038C40.3887 49.0223 40.881 48.967 41.3596 48.8727C42.6263 53.0311 46.502 55.9971 50.9774 55.9971C55.4527 55.9971 59.3283 53.0311 60.5953 48.8728C61.0738 48.9672 61.5661 49.0224 62.0681 49.038C62.1157 49.0426 62.1638 49.0452 62.2125 49.0452C65.0267 49.0452 67.3162 51.3347 67.3162 54.1489V61.3232Z" fill="#1773BA"/>
</g>
<defs>
<clipPath id="clip0_336_1098">
<rect width="70" height="70" fill="white" transform="translate(0.232422)"/>
</clipPath>
</defs>
</svg>
